<?xml version="1.0" encoding="UTF-8" standalone="no"?>
<!DOCTYPE svg PUBLIC "-//W3C//DTD SVG 1.1//EN" "http://www.w3.org/Graphics/SVG/1.1/DTD/svg11.dtd">
<svg width="100%" height="100%" viewBox="0 0 23 23" version="1.1" xmlns="http://www.w3.org/2000/svg" xmlns:xlink="http://www.w3.org/1999/xlink" xml:space="preserve" xmlns:serif="http://www.serif.com/" style="fill-rule:evenodd;clip-rule:evenodd;stroke-linejoin:round;stroke-miterlimit:2;">
    <g transform="matrix(1,0,0,1,-0.749761,-0.73977)">
        <path d="M12.973,0.74C12.713,0.748 12.466,0.857 12.285,1.043L10.042,3.29C9.655,3.678 9.655,4.315 10.042,4.703L12.292,6.957C12.48,7.145 12.734,7.251 13,7.251C13.549,7.251 14.001,6.799 14.001,6.25C14.001,5.985 13.895,5.731 13.708,5.543L13.226,5.06C15.095,5.388 16.703,6.452 17.757,7.943C17.944,8.209 18.249,8.367 18.574,8.367C19.123,8.367 19.574,7.915 19.574,7.366C19.574,7.16 19.51,6.958 19.391,6.789C17.96,4.763 15.714,3.347 13.135,3.022L13.7,2.457C13.894,2.269 14.003,2.01 14.003,1.74C14.003,1.191 13.552,0.74 13.003,0.74C12.993,0.74 12.983,0.74 12.973,0.74ZM7.418,4.419C7.193,4.41 6.971,4.477 6.789,4.609C4.763,6.04 3.347,8.286 3.022,10.865L2.457,10.3C2.27,10.112 2.015,10.007 1.75,10.007C1.201,10.007 0.75,10.459 0.75,11.007C0.75,11.273 0.855,11.527 1.043,11.715L3.29,13.958C3.678,14.345 4.315,14.345 4.703,13.958L6.957,11.708C7.151,11.52 7.261,11.26 7.261,10.99C7.261,10.441 6.81,9.99 6.261,9.99C6.251,9.99 6.241,9.99 6.231,9.99C5.972,9.997 5.724,10.106 5.543,10.292L5.06,10.774C5.388,8.905 6.452,7.297 7.943,6.243C8.215,6.057 8.378,5.748 8.378,5.418C8.378,4.885 7.951,4.44 7.418,4.419ZM11.985,8.486C11.437,8.494 10.993,8.952 11,9.5L11,11L9.5,11C9.495,11 9.491,11 9.486,11C8.937,11 8.486,11.451 8.486,12C8.486,12.549 8.937,13 9.486,13C9.491,13 9.495,13 9.5,13L11,13L11,14.5C11,14.505 11,14.509 11,14.514C11,15.063 11.451,15.514 12,15.514C12.549,15.514 13,15.063 13,14.514C13,14.509 13,14.505 13,14.5L13,13L14.5,13C14.505,13 14.509,13 14.514,13C15.063,13 15.514,12.549 15.514,12C15.514,11.451 15.063,11 14.514,11C14.509,11 14.505,11 14.5,11L13,11L13,9.5C13,9.495 13,9.491 13,9.486C13,8.938 12.549,8.486 12,8.486C11.995,8.486 11.99,8.486 11.985,8.486ZM19.988,9.75C19.729,9.754 19.481,9.859 19.297,10.042L17.043,12.292C16.855,12.48 16.749,12.734 16.749,13C16.749,13.549 17.201,14.001 17.75,14.001C18.015,14.001 18.269,13.895 18.457,13.708L18.94,13.226C18.612,15.095 17.548,16.703 16.057,17.757C15.791,17.944 15.633,18.249 15.633,18.574C15.633,19.123 16.085,19.574 16.634,19.574C16.84,19.574 17.042,19.51 17.211,19.391C19.237,17.96 20.653,15.714 20.978,13.135L21.543,13.7C21.73,13.888 21.985,13.993 22.25,13.993C22.799,13.993 23.25,13.542 23.25,12.993C23.25,12.727 23.145,12.473 22.957,12.285L20.71,10.042C20.519,9.851 20.258,9.746 19.988,9.75ZM5.388,15.623C4.851,15.639 4.418,16.086 4.418,16.623C4.418,16.834 4.485,17.04 4.609,17.211C6.04,19.237 8.286,20.653 10.865,20.978L10.3,21.543C10.112,21.73 10.007,21.985 10.007,22.25C10.007,22.799 10.458,23.25 11.007,23.25C11.273,23.25 11.527,23.145 11.715,22.957L13.958,20.71C14.345,20.322 14.345,19.685 13.958,19.297L11.708,17.043C11.52,16.849 11.26,16.74 10.99,16.74C10.99,16.74 10.99,16.74 10.99,16.74C10.441,16.74 9.989,17.192 9.989,17.74C9.989,18.01 10.099,18.269 10.292,18.457L10.774,18.94C8.905,18.612 7.297,17.548 6.243,16.057C6.051,15.776 5.728,15.613 5.388,15.623Z" style="fill:#F7BE32;fill-rule:nonzero;"/>
    </g>
</svg>
