<?xml version="1.0" encoding="utf-8"?>
<!-- Generator: Adobe Illustrator 23.1.1, SVG Export Plug-In . SVG Version: 6.00 Build 0)  -->
<svg version="1.1" id="Layer_1" xmlns="http://www.w3.org/2000/svg" xmlns:xlink="http://www.w3.org/1999/xlink" x="0px" y="0px"
	 viewBox="0 0 16 24" style="enable-background:new 0 0 16 24;" xml:space="preserve">
<style type="text/css">
	.st0{fill:#F7BE32;}
</style>
<path class="st0" d="M12.65,0.69c-1.39,0-2.52,1.13-2.52,2.52c0,1.14,0.77,2.1,1.82,2.41l0,11.54c-0.14,2.49-2.2,4.45-4.7,4.45
	c-2.54,0-4.61-2.02-4.7-4.54h1.67l-3.38-5.06v5.06h0.01c0.09,3.45,2.92,6.24,6.4,6.24c3.4,0,6.21-2.66,6.4-6.1V5.53
	c0.9-0.39,1.53-1.28,1.53-2.32C15.17,1.82,14.04,0.69,12.65,0.69z M12.65,4.03c-0.45,0-0.82-0.37-0.82-0.82s0.37-0.82,0.82-0.82
	c0.45,0,0.82,0.37,0.82,0.82S13.1,4.03,12.65,4.03z"/>
<g>
</g>
<g>
</g>
<g>
</g>
<g>
</g>
<g>
</g>
<g>
</g>
</svg>
