<?xml version="1.0" encoding="utf-8"?>
<!-- Generator: Adobe Illustrator 23.1.1, SVG Export Plug-In . SVG Version: 6.00 Build 0)  -->
<svg version="1.1" id="Layer_1" xmlns="http://www.w3.org/2000/svg" xmlns:xlink="http://www.w3.org/1999/xlink" x="0px" y="0px"
	 viewBox="0 0 20 22" style="enable-background:new 0 0 20 22;" xml:space="preserve">
<style type="text/css">
	.st0{fill:#BAD0E6;}
</style>
<g>
	<g>
		<path class="st0" d="M16.93,3.63h-0.42v1.46h-2.63V3.63H6.26v1.46H3.63V3.63H3.07C1.66,3.63,1.5,4.78,1.5,6.2v11.3
			c0,1.41,1.16,2.57,2.57,2.57h11.86c1.41,0,2.57-1.16,2.57-2.57V6.2C18.5,4.78,18.34,3.63,16.93,3.63z M17.27,17.99H2.69V8.12
			h14.58V17.99z"/>
		<g>
			<path class="st0" d="M4.13,4.42H5.7V1.94H4.13V4.42z"/>
		</g>
		<g>
			<path class="st0" d="M14.42,4.42h1.57V1.94h-1.57V4.42z"/>
		</g>
	</g>
	<rect x="4.13" y="9.5" class="st0" width="3.27" height="1.78"/>
	<rect x="8.42" y="9.5" class="st0" width="3.27" height="1.78"/>
	<rect x="12.72" y="9.5" class="st0" width="3.27" height="1.78"/>
	<rect x="4.13" y="12.17" class="st0" width="3.27" height="1.78"/>
	<rect x="8.42" y="12.17" class="st0" width="3.27" height="1.78"/>
	<rect x="12.72" y="12.17" class="st0" width="3.27" height="1.78"/>
	<rect x="4.13" y="14.83" class="st0" width="3.27" height="1.78"/>
	<rect x="8.42" y="14.83" class="st0" width="3.27" height="1.78"/>
	<rect x="12.72" y="14.83" class="st0" width="3.27" height="1.78"/>
</g>
<g>
</g>
<g>
</g>
<g>
</g>
<g>
</g>
<g>
</g>
<g>
</g>
</svg>
