<?xml version="1.0" encoding="utf-8"?>
<!-- Generator: Adobe Illustrator 23.1.1, SVG Export Plug-In . SVG Version: 6.00 Build 0)  -->
<svg version="1.1" id="Layer_1" xmlns="http://www.w3.org/2000/svg" xmlns:xlink="http://www.w3.org/1999/xlink" x="0px" y="0px"
	 viewBox="0 0 24 24" style="enable-background:new 0 0 24 24;" xml:space="preserve">
<style type="text/css">
	.st0{fill:#F7BE32;}
</style>
<g>
	<path class="st0" d="M22.98,21.9l-0.36,0.36L12.55,12.19l3.03-3.03c0.82,0.47,3.05-0.75,3.71-1.41l3.79-4
		c0.69-0.69,0.14-1.26-0.56-1.95l-0.14-0.14c-0.69-0.69-1.26-1.25-1.95-0.56l-4,3.79c-0.66,0.66-1.88,2.89-1.41,3.71L12,11.63
		L8.97,8.61C9.44,7.79,8.22,5.56,7.56,4.9l-4-3.79C2.87,0.41,2.31,0.97,1.61,1.66L1.48,1.8C0.78,2.49,0.23,3.06,0.92,3.75l3.79,4
		C5.37,8.41,7.6,9.63,8.42,9.16l3.03,3.03L1.38,22.26L1.02,21.9L0.6,22.32l1.26,1.26l0.42-0.42l-0.36-0.36L12,12.74l10.07,10.07
		l-0.36,0.36l0.42,0.42l1.26-1.26L22.98,21.9z"/>
</g>
<g>
</g>
<g>
</g>
<g>
</g>
<g>
</g>
<g>
</g>
<g>
</g>
</svg>
