<?xml version="1.0" encoding="utf-8"?>
<!-- Generator: Adobe Illustrator 23.1.1, SVG Export Plug-In . SVG Version: 6.00 Build 0)  -->
<svg version="1.1" id="Layer_1" xmlns="http://www.w3.org/2000/svg" xmlns:xlink="http://www.w3.org/1999/xlink" x="0px" y="0px"
	 viewBox="0 0 15 18" style="enable-background:new 0 0 15 18;" xml:space="preserve">
<style type="text/css">
	.st0{fill:#BAD0E6;}
</style>
<path class="st0" d="M12.83,10.98l-0.1,0.13c-0.02,0.03-0.04,0.06-0.07,0.1l0,0l-5.14,6.04L2.6,11.49c-0.19-0.23-0.3-0.38-0.42-0.51
	l-0.04-0.04l0,0C1.12,9.73,1,8.47,1,7.26c0-3.59,2.91-6.5,6.5-6.5S14,3.67,14,7.26C14,8.64,13.56,9.93,12.83,10.98L12.83,10.98z
	 M11.42,7.26c0-2.17-1.76-3.92-3.92-3.92S3.58,5.09,3.58,7.26s1.76,3.92,3.92,3.92S11.42,9.42,11.42,7.26z"/>
<g>
</g>
<g>
</g>
<g>
</g>
<g>
</g>
<g>
</g>
<g>
</g>
</svg>
