<?xml version="1.0" encoding="utf-8"?>
<!-- Generator: Adobe Illustrator 23.1.1, SVG Export Plug-In . SVG Version: 6.00 Build 0)  -->
<svg version="1.1" id="Layer_1" xmlns="http://www.w3.org/2000/svg" xmlns:xlink="http://www.w3.org/1999/xlink" x="0px" y="0px"
	 viewBox="0 0 45 10" style="enable-background:new 0 0 45 10;" xml:space="preserve">
<style type="text/css">
	.st0{fill:#7BACD3;}
</style>
<path class="st0" d="M34.64,4.27c-2.19,2.51-5.6,2.46-6.74,1.83c-2.91-2.13,1.63-5.26,3.49-3.85C30.4-0.46,23.91,0.08,20.11,1.7
	c-4.26,1.81-6.63,6.08-8.96,4.92c-1.51-0.76,1.08-3.4,2.81-3.4C11.69,2.9,9.69,4.41,8.24,5.68C5.61,7.96,2.46,7.21,0.98,6.42
	c0,0,3.44,2.97,7.13,0.57c0,0,0.64,1.63,2.94,1.63c4.45,0,7.96-5.51,13.87-6.06c-1.94,1.94-2.63,4.53-0.55,5.91
	c2.98,1.99,7.94-0.55,10.16-2.59c0.55,1.85,3.88,3.51,9.5,0.54C40.07,7.73,37.06,7.08,34.64,4.27z"/>
</svg>
