<?xml version="1.0" encoding="utf-8"?>
<!-- Generator: Adobe Illustrator 23.1.1, SVG Export Plug-In . SVG Version: 6.00 Build 0)  -->
<svg version="1.1" id="Layer_1" xmlns="http://www.w3.org/2000/svg" xmlns:xlink="http://www.w3.org/1999/xlink" x="0px" y="0px"
	 viewBox="0 0 19 19" style="enable-background:new 0 0 19 19;" xml:space="preserve">
<style type="text/css">
	.st0{fill:#BAD0E6;}
</style>
<g>
	<path class="st0" d="M9.5,0.76c-4.97,0-9,3.91-9,8.74c0,4.83,4.03,8.74,9,8.74c4.97,0,9-3.91,9-8.74C18.5,4.67,14.47,0.76,9.5,0.76
		z M10.31,16.56v-1.64c-0.27,0.04-0.54,0.06-0.81,0.06c-0.28,0-0.55-0.03-0.81-0.06v1.64C5.3,16.2,2.61,13.6,2.23,10.31h1.69
		C3.88,10.05,3.85,9.78,3.85,9.5c0-0.28,0.03-0.55,0.07-0.82H2.23C2.61,5.4,5.3,2.8,8.69,2.44v1.64C8.95,4.04,9.22,4.01,9.5,4.01
		c0.28,0,0.55,0.03,0.81,0.06V2.43c3.38,0.36,6.07,2.97,6.46,6.25h-1.69c0.04,0.27,0.07,0.54,0.07,0.82c0,0.28-0.03,0.55-0.07,0.81
		h1.69C16.38,13.6,13.7,16.2,10.31,16.56z"/>
	<path class="st0" d="M6.38,4.93c0.23-0.15,0.48-0.28,0.74-0.4L6.67,3.76C6.6,3.63,6.46,3.55,6.31,3.55c-0.07,0-0.15,0.02-0.21,0.06
		C6,3.67,5.93,3.76,5.9,3.87C5.87,3.97,5.89,4.09,5.95,4.18L6.38,4.93z"/>
	<path class="st0" d="M12.9,3.61c-0.06-0.04-0.14-0.06-0.21-0.06c-0.15,0-0.29,0.08-0.37,0.21l-0.44,0.76
		c0.26,0.12,0.51,0.25,0.74,0.4l0.43-0.74C13.17,3.98,13.1,3.73,12.9,3.61z"/>
	<path class="st0" d="M15.23,6.67c0.1-0.06,0.17-0.15,0.2-0.25c0.03-0.11,0.02-0.22-0.04-0.32c-0.07-0.13-0.21-0.21-0.36-0.21
		c-0.07,0-0.15,0.02-0.21,0.06l-0.69,0.4c0.16,0.23,0.31,0.47,0.44,0.72L15.23,6.67z"/>
	<path class="st0" d="M3.98,5.89c-0.15,0-0.29,0.08-0.36,0.21C3.55,6.2,3.54,6.31,3.57,6.42c0.03,0.11,0.1,0.2,0.2,0.25l0.68,0.39
		c0.13-0.25,0.27-0.49,0.44-0.72l-0.7-0.4C4.12,5.91,4.05,5.89,3.98,5.89z"/>
	<path class="st0" d="M15.43,12.58c-0.03-0.11-0.1-0.2-0.2-0.26l-0.68-0.39c-0.13,0.25-0.27,0.49-0.44,0.72l0.69,0.4
		c0.06,0.04,0.14,0.06,0.21,0.06c0.15,0,0.29-0.08,0.36-0.21C15.44,12.8,15.46,12.69,15.43,12.58z"/>
	<path class="st0" d="M3.76,12.32c-0.1,0.06-0.17,0.15-0.2,0.26c-0.03,0.11-0.01,0.22,0.04,0.32c0.08,0.13,0.22,0.21,0.36,0.21
		c0.07,0,0.15-0.02,0.21-0.06l0.69-0.4c-0.16-0.23-0.31-0.47-0.44-0.72L3.76,12.32z"/>
	<path class="st0" d="M12.62,14.07c-0.23,0.15-0.48,0.28-0.74,0.4l0.44,0.76c0.08,0.13,0.21,0.21,0.36,0.21
		c0.07,0,0.15-0.02,0.21-0.06c0.2-0.12,0.27-0.37,0.15-0.57L12.62,14.07z"/>
	<path class="st0" d="M5.95,14.81c-0.06,0.1-0.07,0.21-0.04,0.32c0.03,0.11,0.1,0.2,0.2,0.25c0.06,0.04,0.14,0.06,0.21,0.06
		c0.15,0,0.29-0.08,0.36-0.21l0.44-0.77c-0.26-0.12-0.51-0.25-0.74-0.4L5.95,14.81z"/>
	<path class="st0" d="M9.47,8.87c-0.37,0-0.66,0.3-0.66,0.66c0,0.36,0.3,0.66,0.66,0.66c0.37,0,0.66-0.3,0.66-0.66
		C10.14,9.16,9.84,8.87,9.47,8.87z"/>
	<path class="st0" d="M10.03,8.69L9.99,6.15c0-0.31-0.24-0.54-0.56-0.55c-0.31,0-0.55,0.26-0.55,0.56l0.02,1.44L7.62,5.38
		c-0.1-0.16-0.31-0.22-0.47-0.13c-0.17,0.1-0.22,0.31-0.13,0.47l1.78,3.06c0.18-0.17,0.42-0.27,0.68-0.27
		C9.68,8.52,9.87,8.58,10.03,8.69z"/>
</g>
<g>
</g>
<g>
</g>
<g>
</g>
<g>
</g>
<g>
</g>
<g>
</g>
</svg>
