<?xml version="1.0" encoding="utf-8"?>
<!-- Generator: Adobe Illustrator 23.1.1, SVG Export Plug-In . SVG Version: 6.00 Build 0)  -->
<svg version="1.1" id="Layer_1" xmlns="http://www.w3.org/2000/svg" xmlns:xlink="http://www.w3.org/1999/xlink" x="0px" y="0px"
	 viewBox="0 0 27 11" style="enable-background:new 0 0 27 11;" xml:space="preserve">
<style type="text/css">
	.st0{fill:#F7BE32;}
</style>
<path class="st0" d="M26.66,5.17c-0.1-0.08-0.46,0.02-1.22,0.35l0.82-0.71c0.04-0.03,0.03-0.09-0.01-0.12
	c-0.32-0.2-1.53-0.89-2.92-1.1c-0.45-0.07-1.2-1.24-4.78-1.6c-0.04,0-0.08-0.01-0.12-0.02c-0.08-0.12-0.39-0.77-0.58-0.97
	c-0.1-0.11-0.14,0.3-0.26,0.21c-0.17-0.13-0.22-0.51-0.41-0.57c-0.08-0.03-0.21,0.28-0.3,0.27c-0.1-0.01-0.27-0.25-0.41-0.22
	s-0.2,0.3-0.36,0.36c-0.11,0.04-0.33-0.13-0.44-0.09c-0.13,0.05-0.14,0.32-0.27,0.38c-0.16,0.07-0.37-0.11-0.52-0.04
	c-0.12,0.06-0.17,0.37-0.27,0.42c-0.45,0.23-0.86,0.32-0.86,0.32s-0.64-0.62-1.59-1.02c-0.9-0.38-2.09-0.28-3.28,0.23
	C6.97,2.1,8.44,2.95,8.99,3.54C8.74,3.71,7.98,4.16,6.22,4c-0.74-0.06-3.67-2.31-4.8-1.86c0,0-1.35,0.34,0.8,3.1
	C2.31,5.36,1.6,5.9,1.51,5.99C1.13,6.35,0.79,6.81,0.72,7.35c-0.02,0.18,0,0.39,0.15,0.49C0.93,7.88,1.01,7.9,1.09,7.91
	c0.92,0.14,1.84-0.07,2.69-0.42c1.6-0.67,3.14-1.56,4.89-0.77c0.28,0.13,0.55,0.25,0.82,0.36L9.1,7.34c0,0-2.03,0.52-0.12,1.51
	c2.4,1.25,4.42-0.56,4.42-0.56c0.56,0.1,1.14,0.16,1.75,0.19c1.39,0.06,2.81,0.02,4.21-0.1c-0.68,0.42-1.07,0.38-1.35,1.19
	c-0.05,0.13,0.09,0.79,0.17,0.79c0.6,0.02,0.86-0.17,1.31-0.49c0.03-0.02,0.06-0.04,0.09-0.07c0.36-0.26,0.72-0.52,1.02-0.84
	c0.2-0.2,0.37-0.44,0.45-0.71c0.01-0.04,0.02-0.14,0.08-0.14c0,0,0.67-0.03,1.12-0.11c0.82-0.15,1.65-0.46,2.37-0.87
	c0.38-0.22,0.74-0.48,1.07-0.78C25.97,6.08,26.93,5.38,26.66,5.17z"/>
<g>
</g>
<g>
</g>
<g>
</g>
<g>
</g>
<g>
</g>
<g>
</g>
</svg>
